<?xml version="1.0" encoding="UTF-8" standalone="no"?>
<svg
   xmlns:dc="http://purl.org/dc/elements/1.1/"
   xmlns:cc="http://creativecommons.org/ns#"
   xmlns:rdf="http://www.w3.org/1999/02/22-rdf-syntax-ns#"
   xmlns:svg="http://www.w3.org/2000/svg"
   xmlns="http://www.w3.org/2000/svg"
   xmlns:sodipodi="http://sodipodi.sourceforge.net/DTD/sodipodi-0.dtd"
   xmlns:inkscape="http://www.inkscape.org/namespaces/inkscape"
   version="1.1"
   id="Layer_1"
   x="0px"
   y="0px"
   viewBox="0 0 492 492"
   style="enable-background:new 0 0 492 492;"
   xml:space="preserve"
   sodipodi:docname="back-icon.svg"
   inkscape:version="1.0.1 (3bc2e813f5, 2020-09-07)"><metadata
   id="metadata43"><rdf:RDF><cc:Work
       rdf:about=""><dc:format>image/svg+xml</dc:format><dc:type
         rdf:resource="http://purl.org/dc/dcmitype/StillImage" /><dc:title></dc:title></cc:Work></rdf:RDF></metadata><defs
   id="defs41" /><sodipodi:namedview
   pagecolor="#ffffff"
   bordercolor="#666666"
   borderopacity="1"
   objecttolerance="10"
   gridtolerance="10"
   guidetolerance="10"
   inkscape:pageopacity="0"
   inkscape:pageshadow="2"
   inkscape:window-width="1920"
   inkscape:window-height="1027"
   id="namedview39"
   showgrid="false"
   inkscape:zoom="1.7479675"
   inkscape:cx="246"
   inkscape:cy="246"
   inkscape:window-x="-8"
   inkscape:window-y="-8"
   inkscape:window-maximized="1"
   inkscape:current-layer="Layer_1" />
<g
   id="g6">
	<g
   id="g4">
		<path
   d="M198.608,246.104L382.664,62.04c5.068-5.056,7.856-11.816,7.856-19.024c0-7.212-2.788-13.968-7.856-19.032l-16.128-16.12    C361.476,2.792,354.712,0,347.504,0s-13.964,2.792-19.028,7.864L109.328,227.008c-5.084,5.08-7.868,11.868-7.848,19.084    c-0.02,7.248,2.76,14.028,7.848,19.112l218.944,218.932c5.064,5.072,11.82,7.864,19.032,7.864c7.208,0,13.964-2.792,19.032-7.864    l16.124-16.12c10.492-10.492,10.492-27.572,0-38.06L198.608,246.104z"
   id="path2" />
	</g>
</g>
<g
   id="g8">
</g>
<g
   id="g10">
</g>
<g
   id="g12">
</g>
<g
   id="g14">
</g>
<g
   id="g16">
</g>
<g
   id="g18">
</g>
<g
   id="g20">
</g>
<g
   id="g22">
</g>
<g
   id="g24">
</g>
<g
   id="g26">
</g>
<g
   id="g28">
</g>
<g
   id="g30">
</g>
<g
   id="g32">
</g>
<g
   id="g34">
</g>
<g
   id="g36">
</g>
<path
   style="fill:#162d50;stroke-width:0.572093"
   d="m 339.11498,490.31698 c -1.80549,-0.57717 -4.50863,-1.84141 -6.00698,-2.80944 -1.49835,-0.96802 -53.09473,-52.1634 -114.65862,-113.76751 -91.69984,-91.75976 -112.20498,-112.552 -113.43152,-115.01974 -4.82908,-9.71584 -3.98959,-20.36509 2.25392,-28.59188 1.37475,-1.81144 52.39477,-53.143 113.37783,-114.07014 C 329.09957,7.7077761 331.62188,5.2361369 335.8186,3.2028821 c 7.65606,-3.70924922 15.89518,-3.70248003 23.44881,0.019265 3.77294,1.8589642 5.59583,3.4156467 14.92906,12.7488499 6.96859,6.968579 11.24802,11.726278 12.42128,13.809478 4.53025,8.043787 4.65595,17.212808 0.3546,25.865183 -1.21163,2.437242 -18.89507,20.411283 -95.11111,96.674092 l -93.62276,93.68021 92.74224,92.82212 c 51.00824,51.05216 93.51072,93.98059 94.44997,95.39652 5.40529,8.14855 5.97216,18.21026 1.52321,27.03651 -1.7755,3.52242 -21.14655,23.44442 -25.53294,26.25916 -6.02445,3.86587 -15.32473,5.03444 -22.30598,2.80271 z"
   id="path45" /><path
   style="fill:#3445e5;stroke-width:0.572093;fill-opacity:1"
   d="m 343.48688,490.84231 c -2.03946,-0.2154 -5.06927,-1.10852 -7.29695,-2.15098 -3.59925,-1.68429 -9.05274,-7.01559 -98.85069,-96.63582 -52.2727,-52.16925 -103.35326,-103.40802 -113.51235,-113.86394 -21.73499,-22.37003 -21.09784,-21.39805 -21.12165,-32.22124 -0.0144,-6.52559 0.0134,-6.66595 2.20441,-11.15581 2.20925,-4.52719 2.69855,-5.02663 111.84419,-114.16214 C 277.04772,60.364092 328.34608,9.3837976 330.7502,7.3628303 c 6.95597,-5.8473626 14.63487,-7.91364619 22.24051,-5.9846053 7.12958,1.808295 9.25552,3.3083472 20.34059,14.352185 5.68606,5.664902 11.13947,11.479659 12.1187,12.921681 4.15936,6.125114 5.31752,14.916058 2.9675,22.524547 -0.95569,3.094153 -1.94813,4.697157 -5.26162,8.498631 -2.24608,2.576862 -44.88146,45.547231 -94.7453,95.489711 l -90.66153,90.80452 93.53789,93.73397 c 83.32325,83.49792 93.73185,94.12214 95.31412,97.28852 2.30514,4.613 3.21075,9.1265 2.82977,14.10336 -0.49426,6.45654 -2.0295,9.63073 -7.76935,16.0635 -8.16127,9.14653 -18.96513,19.3902 -22.11698,20.97019 -4.65971,2.33587 -10.41822,3.30889 -16.05762,2.71327 z"
   id="path47" /></svg>
