<?xml version="1.0" encoding="iso-8859-1"?>
<!-- Generator: Adobe Illustrator 19.0.0, SVG Export Plug-In . SVG Version: 6.00 Build 0)  -->
<svg version="1.1" id="Layer_1" xmlns="http://www.w3.org/2000/svg" xmlns:xlink="http://www.w3.org/1999/xlink" x="0px" y="0px"
	 viewBox="0 0 512.001 512.001" style="enable-background:new 0 0 512.001 512.001;" xml:space="preserve">
<path style="fill:#AB91EA;" d="M0.001,256.006c0,141.395,114.606,255.998,255.996,255.994
	c141.398,0.004,256.004-114.598,256.004-255.994C512.009,114.61,397.395,0,255.996,0C114.606,0,0.001,114.614,0.001,256.006z"/>
<path style="fill:#947ADB;" d="M498.97,336.633l-1.435-1.436L253.972,91.633c-0.634-0.636-1.393-1.142-2.235-1.494
	c-0.838-0.35-1.744-0.539-2.67-0.539H96.534c-3.829,0-6.933,3.104-6.933,6.933v291.2c0,2.347,1.243,4.32,3.027,5.574
	c0.463,0.658,112.783,112.978,113.441,113.441c0.118,0.167,0.297,0.272,0.427,0.427c16.02,3.139,32.561,4.827,49.502,4.826
	C369.212,512.003,465.185,438.501,498.97,336.633z"/>
<g>
	<path style="fill:#F4F6F9;" d="M103.467,103.467h138.667v62.4c0,3.829,3.104,6.933,6.933,6.933h62.4v48.533h13.867v-55.44
		c0-0.004-0.002-0.009-0.002-0.014l0.002-0.013c0-0.659-0.204-1.254-0.375-1.858c-0.073-0.253-0.055-0.529-0.156-0.772
		c-0.365-0.887-0.908-1.671-1.585-2.33l-69.246-69.274c-0.635-0.635-1.393-1.142-2.235-1.494c-0.838-0.35-1.744-0.539-2.67-0.539
		H96.534c-3.829,0-6.933,3.104-6.933,6.933v291.2c0,3.829,3.104,6.933,6.933,6.933h138.667V380.8H103.467V103.467z M256.001,113.278
		l45.638,45.655h-45.638V113.278z"/>
	<path style="fill:#F4F6F9;" d="M332.267,242.133c-49.701,0-90.133,40.432-90.133,90.133s40.432,90.133,90.133,90.133
		s90.133-40.432,90.133-90.133S381.969,242.133,332.267,242.133z M332.267,408.533c-42.053,0-76.267-34.213-76.267-76.267
		S290.214,256,332.267,256s76.267,34.213,76.267,76.267S374.321,408.533,332.267,408.533z"/>
	<path style="fill:#F4F6F9;" d="M370.083,325.307h-75.637c-3.829,0-6.933,3.104-6.933,6.933c0,3.829,3.104,6.933,6.933,6.933h75.637
		c3.829,0,6.933-3.104,6.933-6.933C377.016,328.411,373.911,325.307,370.083,325.307z"/>
</g>
<g>
</g>
<g>
</g>
<g>
</g>
<g>
</g>
<g>
</g>
<g>
</g>
<g>
</g>
<g>
</g>
<g>
</g>
<g>
</g>
<g>
</g>
<g>
</g>
<g>
</g>
<g>
</g>
<g>
</g>
</svg>
